HIERARCHY
ROOT	Hips
{
	OFFSET	0.000	0.000	0.000
	CHANNELS	6	Xposition	Yposition	Zposition	Yrotation	Xrotation	Zrotation
	JOINT	Chest
	{
		OFFSET	0.000	10.049	-0.018
		CHANNELS	3	Yrotation	Xrotation	Zrotation
		JOINT	Chest2
		{
			OFFSET	-0.013	22.718	-0.005
			CHANNELS	3	Yrotation	Xrotation	Zrotation
			JOINT	LeftCollar
			{
				OFFSET	3.045	22.720	0.013
				CHANNELS	3	Yrotation	Xrotation	Zrotation
				JOINT	LeftShoulder
				{
					OFFSET	11.359	0.006	-0.000
					CHANNELS	3	Yrotation	Xrotation	Zrotation
					JOINT	LeftElbow
					{
						OFFSET	26.214	0.015	-0.001
						CHANNELS	3	Yrotation	Xrotation	Zrotation
						JOINT	LeftWrist
						{
							OFFSET	26.214	0.015	-0.001
							CHANNELS	3	Yrotation	Xrotation	Zrotation
							End Site
							{
								OFFSET	-0.000	-10.922	-0.006
							}
						}
					}
				}
			}
			JOINT	Neck
			{
				OFFSET	-0.013	22.718	0.008
				CHANNELS	3	Yrotation	Xrotation	Zrotation
				JOINT	Head
				{
					OFFSET	-0.004	6.553	0.004
					CHANNELS	3	Yrotation	Xrotation	Zrotation
					End Site
					{
						OFFSET	-0.012	20.534	-0.005
					}
				}
			}
			JOINT	RightCollar
			{
				OFFSET	-3.071	22.717	0.013
				CHANNELS	3	Yrotation	Xrotation	Zrotation
				JOINT	RightShoulder
				{
					OFFSET	-11.359	-0.006	0.000
					CHANNELS	3	Yrotation	Xrotation	Zrotation
					JOINT	RightElbow
					{
						OFFSET	-26.214	-0.015	0.001
						CHANNELS	3	Yrotation	Xrotation	Zrotation
						JOINT	RightWrist
						{
							OFFSET	-26.214	-0.015	0.001
							CHANNELS	3	Yrotation	Xrotation	Zrotation
							End Site
							{
								OFFSET	-0.000	-10.922	0.006
							}
						}
					}
				}
			}
		}
	}
	JOINT	LeftHip
	{
		OFFSET	8.738	-0.000	-0.000
		CHANNELS	3	Yrotation	Xrotation	Zrotation
		JOINT	LeftKnee
		{
			OFFSET	-0.000	-43.689	-0.035
			CHANNELS	3	Yrotation	Xrotation	Zrotation
			JOINT	LeftAnkle
			{
				OFFSET	-0.000	-43.689	-0.035
				CHANNELS	3	Yrotation	Xrotation	Zrotation
				End Site
				{
					OFFSET	-0.000	-10.059	12.924
				}
			}
		}
	}
	JOINT	RightHip
	{
		OFFSET	-8.738	0.000	0.000
		CHANNELS	3	Yrotation	Xrotation	Zrotation
		JOINT	RightKnee
		{
			OFFSET	-0.000	-43.689	-0.035
			CHANNELS	3	Yrotation	Xrotation	Zrotation
			JOINT	RightAnkle
			{
				OFFSET	-0.000	-43.689	-0.035
				CHANNELS	3	Yrotation	Xrotation	Zrotation
				End Site
				{
					OFFSET	-0.000	-10.059	12.924
				}
			}
		}
	}
}
MOTION
Frames:	13
Frame Time:	0.033
-0.000	96.800	0.000	0.000	-0.000	0.000	-0.000	0.000	0.000	0.000	-0.000	0.000	0.000	-0.000	0.000	0.000	-0.000	0.000	0.000	-0.000	0.000	-0.000	-0.000	90.000	0.000	-0.000	0.000	0.000	-0.000	0.000	-0.000	-0.000	-0.000	0.000	-0.000	0.000	0.000	-0.000	0.000	-0.000	0.000	270.000	0.000	0.000	0.000	0.000	-0.000	0.000	0.000	-0.000	0.000	0.000	0.000	0.000	0.000	-0.000	0.000	0.000	-0.000	0.000	
-39.839	95.655	146.244	27.817	16.759	354.579	4.999	33.518	0.955	4.999	33.518	0.955	341.386	345.384	10.990	356.415	347.894	273.020	306.964	2.245	1.312	16.515	9.367	100.404	347.442	351.434	7.457	347.442	351.434	7.457	9.805	322.843	355.864	42.583	327.483	33.325	30.160	22.815	359.547	354.626	32.821	220.475	22.631	324.528	357.306	349.671	11.592	355.987	345.916	6.857	1.630	327.395	329.745	12.474	1.282	11.743	359.472	0.579	4.252	0.539	
-39.839	95.655	146.244	27.817	16.759	354.579	4.999	33.518	0.955	4.999	33.518	0.955	341.386	345.384	10.990	356.415	347.894	273.020	306.964	2.245	1.312	16.515	9.367	100.404	347.442	351.434	7.457	347.442	351.434	7.457	9.805	322.843	355.864	42.583	327.483	33.325	30.160	22.815	359.547	354.626	32.821	220.475	22.631	324.528	357.306	349.671	11.592	355.987	345.916	6.857	1.630	327.395	329.745	12.474	1.282	11.743	359.472	0.579	4.252	0.539	
-39.850	95.652	146.248	27.820	16.748	354.584	5.016	33.516	0.968	5.016	33.516	0.968	341.377	345.379	10.988	356.405	347.880	273.022	306.984	2.249	1.304	16.522	9.374	100.402	347.439	351.434	7.471	347.439	351.434	7.471	9.800	322.829	355.864	42.603	327.553	33.303	30.109	22.830	359.524	354.576	32.860	220.422	22.604	324.510	357.342	349.697	11.626	355.967	345.905	6.851	1.629	327.398	329.754	12.474	1.286	11.741	359.465	0.571	4.250	0.532	
-39.891	95.635	146.254	27.847	16.715	354.602	5.050	33.525	0.999	5.050	33.525	0.999	341.384	345.373	10.983	356.421	347.838	273.013	307.010	2.284	1.236	16.530	9.394	100.412	347.424	351.417	7.495	347.424	351.417	7.495	9.761	322.815	355.875	42.655	327.719	33.244	30.142	23.016	359.446	354.495	32.901	220.409	22.568	324.504	357.363	349.684	11.673	355.953	345.919	6.839	1.627	327.420	329.773	12.443	1.263	11.738	359.461	0.559	4.247	0.524	
-39.929	95.622	146.248	27.872	16.694	354.621	5.098	33.531	1.031	5.098	33.531	1.031	341.349	345.405	10.987	356.456	347.803	272.998	306.960	2.256	1.214	16.526	9.392	100.417	347.425	351.369	7.538	347.425	351.369	7.538	9.698	322.826	355.905	42.514	327.925	33.234	30.628	22.947	359.485	354.253	33.125	220.533	22.531	324.484	357.375	349.646	11.723	355.966	345.961	6.820	1.600	327.463	329.764	12.409	1.219	11.748	359.459	0.535	4.245	0.517	
-39.970	95.619	146.271	27.895	16.684	354.636	5.113	33.535	1.035	5.113	33.535	1.035	341.333	345.430	10.999	356.457	347.789	272.975	306.923	2.233	1.229	16.539	9.367	100.430	347.457	351.330	7.570	347.457	351.330	7.570	9.656	322.831	355.948	42.339	327.973	33.338	31.266	23.100	359.542	353.662	33.516	220.572	22.524	324.487	357.378	349.658	11.738	355.988	345.930	6.811	1.575	327.443	329.744	12.419	1.226	11.789	359.470	0.506	4.226	0.515	
-40.000	95.617	146.297	27.931	16.661	354.635	5.098	33.542	1.016	5.098	33.542	1.016	341.334	345.450	11.032	356.477	347.781	272.963	306.923	2.245	1.252	16.559	9.382	100.469	347.499	351.315	7.588	347.499	351.315	7.588	9.656	322.878	355.975	42.326	328.065	33.364	31.492	23.243	359.506	353.503	33.573	220.457	22.546	324.492	357.385	349.615	11.752	355.993	345.902	6.800	1.554	327.366	329.778	12.469	1.266	11.816	359.463	0.484	4.207	0.487	
-40.030	95.612	146.313	27.953	16.637	354.641	5.080	33.552	0.985	5.079	33.552	0.985	341.326	345.470	11.071	356.508	347.801	272.956	306.881	2.218	1.282	16.576	9.442	100.469	347.494	351.334	7.605	347.494	351.334	7.605	9.657	322.882	355.988	42.360	328.121	33.361	31.456	23.226	359.489	353.614	33.452	220.457	22.577	324.508	357.387	349.572	11.757	355.987	345.889	6.794	1.538	327.383	329.779	12.472	1.235	11.849	359.439	0.470	4.189	0.468	
-40.051	95.613	146.335	27.965	16.621	354.645	5.086	33.555	0.973	5.086	33.554	0.973	341.306	345.486	11.082	356.507	347.814	272.982	306.857	2.174	1.280	16.568	9.420	100.461	347.460	351.364	7.612	347.460	351.364	7.612	9.630	322.883	355.983	42.288	328.089	33.462	31.460	23.220	359.486	353.689	33.420	220.478	22.640	324.527	357.368	349.516	11.750	355.990	345.869	6.791	1.523	327.414	329.779	12.470	1.229	11.866	359.438	0.420	4.176	0.454	
-40.096	95.609	146.366	28.008	16.608	354.643	5.093	33.560	0.978	5.093	33.560	0.978	341.314	345.514	11.086	356.535	347.796	273.036	306.834	2.115	1.216	16.537	9.352	100.454	347.446	351.391	7.591	347.446	351.391	7.591	9.610	322.878	356.016	42.161	328.040	33.593	31.602	23.236	359.521	353.672	33.383	220.354	22.684	324.524	357.370	349.428	11.750	355.992	345.860	6.791	1.486	327.445	329.802	12.457	1.179	11.844	359.459	0.386	4.180	0.427	
-40.145	95.603	146.399	28.027	16.610	354.664	5.094	33.561	0.965	5.094	33.561	0.965	341.317	345.530	11.109	356.559	347.795	273.010	306.796	2.095	1.196	16.543	9.365	100.454	347.444	351.391	7.590	347.444	351.391	7.590	9.609	322.891	356.038	42.143	328.108	33.622	31.686	23.241	359.485	353.623	33.348	220.225	22.696	324.523	357.394	349.427	11.742	355.968	345.827	6.792	1.461	327.434	329.811	12.467	1.151	11.821	359.449	0.397	4.185	0.413	
-40.189	95.602	146.430	28.043	16.610	354.684	5.102	33.568	0.948	5.102	33.568	0.948	341.315	345.532	11.137	356.509	347.778	272.982	306.795	2.131	1.246	16.597	9.442	100.501	347.452	351.396	7.579	347.452	351.396	7.579	9.631	322.888	356.061	42.104	328.158	33.649	31.660	23.219	359.430	353.700	33.230	220.094	22.646	324.536	357.442	349.488	11.704	355.958	345.784	6.813	1.431	327.365	329.825	12.513	1.200	11.818	359.459	0.380	4.180	0.379	
